<?xml version="1.0" standalone="no"?>
<!DOCTYPE svg PUBLIC "-//W3C//DTD SVG 20010904//EN"
 "http://www.w3.org/TR/2001/REC-SVG-20010904/DTD/svg10.dtd">
<svg version="1.0" xmlns="http://www.w3.org/2000/svg"
 width="300.000000pt" height="262.000000pt" viewBox="0 0 300.000000 262.000000"
 preserveAspectRatio="xMidYMid meet">
<metadata>
Created by potrace 1.10, written by Peter Selinger 2001-2011
</metadata>
<g transform="translate(0.000000,262.000000) scale(0.100000,-0.100000)"
fill="#000000" stroke="none">
<path d="M2210 2336 c-16 -9 -112 -156 -272 -419 -137 -223 -248 -409 -248
-414 0 -6 -18 -38 -40 -72 -22 -34 -40 -64 -40 -67 0 -4 47 -5 105 -2 117 4
142 15 179 80 49 83 181 297 213 343 19 28 45 70 59 95 13 25 47 81 75 125
134 214 150 288 69 330 -36 18 -67 19 -100 1z"/>
<path d="M1015 1794 c-22 -2 -96 -9 -164 -15 -240 -20 -447 -66 -563 -125 -85
-43 -91 -68 -25 -112 148 -101 494 -164 1035 -187 151 -7 153 -7 175 17 22 23
74 99 115 168 65 109 115 188 134 212 12 15 19 31 15 34 -7 7 -657 14 -722 8z"/>
<path d="M2097 1638 c-206 -261 -208 -265 -98 -254 260 24 540 112 549 173 6
42 -110 106 -261 144 -45 11 -90 23 -99 25 -12 4 -38 -22 -91 -88z"/>
<path d="M230 1424 c0 -15 12 -66 76 -329 40 -162 116 -294 249 -434 121 -127
218 -195 379 -269 215 -98 315 -114 552 -91 179 17 287 44 447 110 257 105
396 202 471 329 47 79 64 137 87 290 11 74 31 183 44 242 30 130 31 143 7 133
-78 -34 -196 -71 -292 -90 -617 -128 -1557 -76 -1982 109 -35 15 -38 15 -38 0z"/>
</g>
</svg>
